<svg xmlns:svg="http://www.w3.org/2000/svg" xmlns="http://www.w3.org/2000/svg" viewBox="0 0 36 40" version="1.1"
     fill="#000000" width="36" height="40">
    <path style="fill-rule: evenodd; stroke-width: 1.45536"
          d="M 15.4375 -0.10546875 L 9.1875 15.783203 L 0.015625 15.783203 L 0.015625 20.822266 L 7.2070312 20.822266 L 5.53125 25.083984 L 0.015625 25.083984 L 0.015625 30.123047 L 3.5488281 30.123047 L 0.015625 39.105469 L 5.0976562 39.105469 L 8.6386719 30.123047 L 27.353516 30.123047 L 30.894531 39.105469 L 35.976562 39.105469 L 32.443359 30.123047 L 35.976562 30.123047 L 35.976562 25.083984 L 30.460938 25.083984 L 28.785156 20.822266 L 35.976562 20.822266 L 35.976562 15.783203 L 26.804688 15.783203 L 20.554688 -0.10546875 L 15.4375 -0.10546875 z M 17.996094 6.3847656 L 21.701172 15.783203 L 14.291016 15.783203 L 17.996094 6.3847656 z M 12.304688 20.822266 L 23.6875 20.822266 L 25.367188 25.083984 L 10.625 25.083984 L 12.304688 20.822266 z "></path>
</svg>